<?xml version="1.0" encoding="UTF-8"?>
<svg width="120px" height="120px" viewBox="0 0 120 120" version="1.1" xmlns="http://www.w3.org/2000/svg" xmlns:xlink="http://www.w3.org/1999/xlink">
    <title>Untitled</title>
    <g id="Page-1" stroke="none" stroke-width="1" fill="none" fill-rule="evenodd">
        <g id="nook-logo">
            <rect id="Rectangle" fill="#FFFFFF" x="0" y="0" width="120" height="120"></rect>
            <polygon id="Rectangle" fill="#FBC531" fill-rule="nonzero" points="0 0 120 0 0 120"></polygon>
            <path d="M109.768,113.712 C110.152,113.712 110.488,113.568 110.488,113.28 C110.488,112.222 110.35575,109.048 110.344729,108.278378 L110.344,98.928 C110.344,95.04 109.432,90 103.336,90 C99.784,90 95.704,92.112 93.784,96 C93.784,94.656 93.832,92.208 93.832,91.44 C93.832,90.672 92.584,90.144 91.72,90.144 C91.336,90.144 91,90.288 91,90.576 C91,91.68 91.144,94.8 91.144,95.712 L91.144,108.192 C91.144,108.864 91.048,111.648 91.048,112.416 C91.048,113.184 92.296,113.712 93.16,113.712 C93.544,113.712 93.88,113.568 93.88,113.28 C93.88,112.32 93.736,110.64 93.736,108.864 L93.736,108.192 C93.784,105.408 93.736,101.952 94.504,99.408 C95.944,94.56 99.976,92.496 103.336,92.496 C106.936,92.496 107.752,95.328 107.752,99.12 L107.752,108.192 C107.752,109.296 107.656,111.648 107.656,112.416 C107.656,113.184 108.904,113.712 109.768,113.712 Z" id="n" fill="#FBC531" fill-rule="nonzero"></path>
        </g>
    </g>
</svg>